<svg width="110" height="45" viewBox="0 0 110 45" fill="none" xmlns="http://www.w3.org/2000/svg">
<rect x="1.5" y="1.5" width="106.286" height="42" stroke="#323330" stroke-width="3"/>
<path d="M12.5132 8.5625H16.1655L25.4819 31.7461L34.7788 8.5625H38.4507L26.8882 37H24.0366L12.5132 8.5625ZM11.3217 8.5625H14.5444L15.0717 25.9062V37H11.3217V8.5625ZM36.3999 8.5625H39.6225V37H35.8725V25.9062L36.3999 8.5625ZM50.0132 8.5625V37H46.2436V8.5625H50.0132ZM67.1811 8.5625L55.3647 21.8242L48.7241 28.7188L48.0991 24.6953L53.0991 19.1875L62.6499 8.5625H67.1811ZM63.5483 37L53.021 23.1328L55.2671 20.1445L68.0405 37H63.5483Z" fill="#323330"/>
<rect x="70.1835" y="33" width="27.0708" height="4" fill="#323330"/>
</svg>
