<svg width="54" height="44" viewBox="0 0 54 44" fill="none" xmlns="http://www.w3.org/2000/svg">
<path d="M11.4897 0.857422C8.46195 0.857422 6.22222 3.50848 6.3222 6.38356C6.41839 9.14516 6.29351 12.7227 5.39281 15.6395C4.49 18.5656 2.96281 20.4147 0.468262 20.6526V23.3472C2.96281 23.5847 4.49 25.4342 5.39281 28.3603C6.29351 31.2771 6.41797 34.8546 6.3222 37.6162C6.22179 40.4913 8.46195 43.142 11.4897 43.142H42.5144C45.5422 43.142 47.782 40.4909 47.682 37.6162C47.5858 34.8546 47.7107 31.2771 48.6109 28.3603C49.5138 25.4346 51.0372 23.5851 53.5317 23.3472V20.6526C51.0372 20.4151 49.5142 18.5656 48.6109 15.6395C47.7107 12.7227 47.5858 9.14516 47.682 6.38356C47.782 3.50848 45.5422 0.857422 42.514 0.857422H11.4897ZM36.0066 26.8812C36.0066 30.8401 33.0526 33.2401 28.1509 33.2401H19.1134C19.0585 33.2401 19.0058 33.2183 18.967 33.1795C18.9281 33.1406 18.9063 33.0879 18.9063 33.033V10.958C18.9063 10.9307 18.9116 10.9037 18.922 10.8786C18.9323 10.8534 18.9476 10.8305 18.9668 10.8112C18.9861 10.7919 19.0089 10.7766 19.0341 10.7662C19.0592 10.7558 19.0862 10.7504 19.1134 10.7504H28.1032C32.1907 10.7504 34.873 12.9635 34.873 16.3613C34.873 18.7462 33.0687 20.8809 30.7694 21.2551V21.38C33.8989 21.7229 36.0066 23.8893 36.0066 26.8812ZM27.2409 13.6027H22.483V20.3198H26.4908C29.5882 20.3198 31.2964 19.0731 31.2964 16.8444C31.2964 14.7561 29.8278 13.6027 27.2409 13.6027V13.6027ZM22.483 22.9852V30.3883H27.4168C30.642 30.3883 32.3506 29.0948 32.3506 26.6631C32.3506 24.2318 30.5944 22.9852 27.2092 22.9852H22.483Z" fill="#323330"/>
</svg>
