<svg width="48" height="54" viewBox="0 0 48 54" fill="none" xmlns="http://www.w3.org/2000/svg">
<path d="M0.695801 0.421875L4.93775 48.0444L23.9719 53.3516L43.0592 48.025L47.3045 0.421875H0.695801ZM38.492 11.3324L37.08 27.197L37.0842 27.2827L37.0783 27.4797V27.478L36.0751 38.5708L35.9646 39.5563L24.0002 42.8655V42.8659L23.9909 42.8739L12.0472 39.5461L11.2385 30.375H17.0953L17.5109 35.0384L24.0019 36.7976L24.0002 36.801V36.8002L30.5152 35.016L31.2037 27.4219H17.5843L17.4674 26.1381L17.2012 23.1306L17.0616 21.5156H31.7213L32.2546 15.6094H9.92643L9.80957 14.3265L9.54378 11.3181L9.40372 9.70312H38.6316L38.492 11.3324V11.3324Z" fill="#FEFFFE"/>
</svg>
