<svg width="48" height="54" viewBox="0 0 48 54" fill="none" xmlns="http://www.w3.org/2000/svg">
<path d="M0.695679 0.421875L4.93763 48.0444L23.9718 53.3516L43.0591 48.025L47.3044 0.421875H0.695679ZM38.4919 11.3324L37.0799 27.197L37.0841 27.2827L37.0782 27.4797V27.478L36.075 38.5708L35.9644 39.5563L24.0001 42.8655V42.8659L23.9908 42.8739L12.0471 39.5461L11.2383 30.375H17.0952L17.5108 35.0384L24.0017 36.7976L24.0001 36.801V36.8002L30.5151 35.016L31.2036 27.4219H17.5842L17.4673 26.1381L17.2011 23.1306L17.0615 21.5156H31.7212L32.2545 15.6094H9.9263L9.80944 14.3265L9.54366 11.3181L9.4036 9.70312H38.6315L38.4919 11.3324V11.3324Z" fill="#323330"/>
</svg>
