<svg width="21" height="31" viewBox="0 0 21 31" fill="none" xmlns="http://www.w3.org/2000/svg">
<path d="M5.68365 30.2344C8.47272 30.2344 10.7227 27.9844 10.7227 25.1953V20.1562H5.68365C2.89459 20.1562 0.644592 22.4063 0.644592 25.1953C0.644592 27.9844 2.89459 30.2344 5.68365 30.2344ZM0.644592 15.1172C0.644592 12.3281 2.89459 10.0781 5.68365 10.0781H10.7227V20.1562H5.68365C2.89459 20.1562 0.644592 17.9062 0.644592 15.1172ZM0.644592 5.03906C0.644592 2.25 2.89459 0 5.68365 0H10.7227V10.0781H5.68365C2.89459 10.0781 0.644592 7.82812 0.644592 5.03906ZM10.7227 0H15.7618C18.5508 0 20.8008 2.25 20.8008 5.03906C20.8008 7.82812 18.5508 10.0781 15.7618 10.0781H10.7227V0ZM20.8008 15.1172C20.8008 17.9062 18.5508 20.1562 15.7618 20.1562C12.9727 20.1562 10.7227 17.9062 10.7227 15.1172C10.7227 12.3281 12.9727 10.0781 15.7618 10.0781C18.5508 10.0781 20.8008 12.3281 20.8008 15.1172Z" fill="#323330"/>
</svg>
