<svg width="54" height="54" viewBox="0 0 54 54" fill="none" xmlns="http://www.w3.org/2000/svg">
<path d="M52.6255 24.6285L29.373 1.37732C28.0348 0.0382891 25.863 0.0382891 24.5227 1.37732L19.6952 6.2061L25.82 12.3309C27.2438 11.8504 28.8756 12.1727 30.01 13.3071C30.5507 13.8482 30.9281 14.5305 31.0992 15.2761C31.2702 16.0216 31.228 16.8002 30.9774 17.5229L36.8803 23.4266C38.3083 22.9343 39.9566 23.2524 41.0965 24.3948C42.6912 25.9882 42.6912 28.5714 41.0965 30.1656C40.7175 30.5448 40.2676 30.8456 39.7723 31.0508C39.2771 31.256 38.7463 31.3616 38.2102 31.3616C37.6742 31.3616 37.1434 31.256 36.6481 31.0508C36.1529 30.8456 35.7029 30.5448 35.324 30.1656C34.7546 29.5959 34.3665 28.8705 34.2085 28.0807C34.0505 27.2909 34.1296 26.472 34.4359 25.7271L28.9313 20.2221L28.9305 34.7097C29.3298 34.9063 29.6945 35.1668 30.01 35.4809C31.6043 37.0743 31.6043 39.6566 30.01 41.2534C28.4158 42.8468 25.8318 42.8468 24.2392 41.2534C22.6454 39.657 22.5146 37.0747 24.108 35.4809C24.502 35.0872 24.8906 34.7898 25.3125 34.5907V19.9689C24.8906 19.7698 24.5025 19.4745 24.1076 19.0784C22.9006 17.8718 22.6749 16.0999 23.2942 14.6166L17.2897 8.57831L1.3622 24.521C0.0227443 25.8613 0.0311818 28.0331 1.37063 29.3725L24.6269 52.6237C25.9655 53.9628 28.139 53.9628 29.4797 52.6237L52.6238 29.4805C53.9633 28.1406 53.9645 25.9676 52.6255 24.6285V24.6285Z" fill="#FEFFFE"/>
</svg>
