<svg width="36" height="35" viewBox="0 0 36 35" fill="none" xmlns="http://www.w3.org/2000/svg">
<path d="M17.9642 0C8.27556 0 0.428223 7.85172 0.428223 17.5359C0.428223 25.2854 5.45227 31.857 12.4184 34.1732C13.2952 34.3383 13.6167 33.7961 13.6167 33.33C13.6167 32.9135 13.6021 31.8102 13.5948 30.3489C8.71688 31.4069 7.6881 27.9961 7.6881 27.9961C6.89022 25.9722 5.73723 25.4315 5.73723 25.4315C4.14876 24.3443 5.85998 24.3662 5.85998 24.3662C7.62088 24.4889 8.5459 26.1724 8.5459 26.1724C10.1095 28.8539 12.6508 28.0794 13.6532 27.6308C13.8111 26.4968 14.2626 25.7238 14.7639 25.2854C10.8694 24.847 6.77623 23.3389 6.77623 16.6197C6.77623 14.7053 7.45575 13.1417 8.58097 11.9142C8.3837 11.4714 7.79186 9.68861 8.73441 7.27303C8.73441 7.27303 10.203 6.80248 13.5568 9.07046C14.9597 8.68029 16.4502 8.48739 17.9408 8.47863C19.4313 8.48739 20.9219 8.68029 22.3248 9.07046C25.6566 6.80248 27.1252 7.27303 27.1252 7.27303C28.0678 9.68861 27.476 11.4714 27.3006 11.9142C28.4185 13.1417 29.098 14.7053 29.098 16.6197C29.098 23.3564 24.999 24.8397 21.0973 25.2707C21.711 25.7968 22.2809 26.8724 22.2809 28.5149C22.2809 30.8618 22.259 32.7469 22.259 33.3168C22.259 33.7771 22.5659 34.3251 23.4646 34.1498C30.4804 31.8496 35.5001 25.2737 35.5001 17.5359C35.5001 7.85172 27.6484 0 17.9642 0Z" fill="#FEFFFE"/>
</svg>
