<svg width="36" height="35" viewBox="0 0 36 35" fill="none" xmlns="http://www.w3.org/2000/svg">
<path d="M18.4641 0C13.7099 0 13.1164 0.021875 11.2497 0.105C9.38599 0.1925 8.11724 0.485625 7.00161 0.91875C5.85099 1.365 4.8739 1.96438 3.90119 2.93708C2.92849 3.90979 2.32765 4.88542 1.88286 6.0375C1.44974 7.15312 1.15515 8.42188 1.06911 10.2856C0.981611 12.1523 0.964111 12.7458 0.964111 17.5C0.964111 22.2542 0.985986 22.8477 1.06911 24.7144C1.15661 26.5767 1.44974 27.8469 1.88286 28.9625C2.32225 30.1304 3.01102 31.1885 3.90119 32.0629C4.77514 32.9537 5.83334 33.6426 7.00161 34.0813C8.11869 34.5129 9.38744 34.809 11.2497 34.895C13.1164 34.9825 13.7099 35 18.4641 35C23.2183 35 23.8118 34.9781 25.6785 34.895C27.5408 34.8075 28.811 34.5129 29.9266 34.0813C31.0942 33.6413 32.1522 32.9526 33.027 32.0629C33.9181 31.1892 34.607 30.1309 35.0454 28.9625C35.477 27.8469 35.7731 26.5767 35.8591 24.7144C35.9466 22.8477 35.9641 22.2542 35.9641 17.5C35.9641 12.7458 35.9422 12.1523 35.8591 10.2856C35.7716 8.42333 35.477 7.15167 35.0454 6.0375C34.6058 4.86969 33.917 3.81169 33.027 2.93708C32.1537 2.04552 31.0953 1.35653 29.9266 0.91875C28.811 0.485625 27.5408 0.191042 25.6785 0.105C23.8118 0.0175 23.2183 0 18.4641 0ZM18.4641 3.15C23.1352 3.15 23.6922 3.17333 25.537 3.25354C27.2433 3.33375 28.1693 3.61667 28.7847 3.85875C29.6043 4.17521 30.1847 4.55438 30.8002 5.16542C31.4112 5.77792 31.7904 6.35979 32.1068 7.17938C32.346 7.79479 32.6318 8.72083 32.7091 10.4271C32.7922 12.2733 32.8112 12.8275 32.8112 17.5C32.8112 22.1725 32.7893 22.7281 32.7033 24.5729C32.6143 26.2792 32.3299 27.2052 32.0893 27.8206C31.8046 28.5801 31.3572 29.268 30.7783 29.836C30.2126 30.4154 29.5252 30.8618 28.7658 31.1427C28.1533 31.3819 27.2127 31.6677 25.5064 31.745C23.6485 31.8281 23.1016 31.8471 18.4204 31.8471C13.7377 31.8471 13.1908 31.8252 11.3343 31.7392C9.62661 31.6502 8.68599 31.3658 8.07349 31.1252C7.31356 30.844 6.62635 30.396 6.06244 29.8142C5.47704 29.2523 5.02807 28.5639 4.74994 27.8017C4.50932 27.1892 4.2264 26.2485 4.13744 24.5423C4.07182 22.7048 4.04849 22.1375 4.04849 17.4781C4.04849 12.8173 4.07182 12.2485 4.13744 10.3892C4.2264 8.68292 4.50932 7.74375 4.74994 7.13125C5.05619 6.3 5.44849 5.73125 6.06244 5.11729C6.67349 4.50625 7.24369 4.1125 8.07349 3.80771C8.68599 3.56563 9.6062 3.28125 11.3124 3.19375C13.1718 3.12813 13.7187 3.10625 18.3985 3.10625L18.4641 3.15ZM18.4641 8.51375C17.284 8.51375 16.1155 8.74619 15.0252 9.19779C13.935 9.64939 12.9443 10.3113 12.1099 11.1458C11.2754 11.9802 10.6135 12.9708 10.1619 14.0611C9.7103 15.1514 9.47786 16.3199 9.47786 17.5C9.47786 18.6801 9.7103 19.8486 10.1619 20.9389C10.6135 22.0292 11.2754 23.0198 12.1099 23.8542C12.9443 24.6887 13.935 25.3506 15.0252 25.8022C16.1155 26.2538 17.284 26.4863 18.4641 26.4863C20.8474 26.4863 23.1331 25.5395 24.8183 23.8542C26.5036 22.169 27.4504 19.8833 27.4504 17.5C27.4504 15.1167 26.5036 12.831 24.8183 11.1458C23.1331 9.46051 20.8474 8.51375 18.4641 8.51375ZM18.4641 23.3333C15.2412 23.3333 12.6308 20.7229 12.6308 17.5C12.6308 14.2771 15.2412 11.6667 18.4641 11.6667C21.687 11.6667 24.2974 14.2771 24.2974 17.5C24.2974 20.7229 21.687 23.3333 18.4641 23.3333ZM29.9062 8.15938C29.8859 8.70279 29.6558 9.21719 29.2642 9.59448C28.8726 9.97176 28.35 10.1826 27.8062 10.1826C27.2624 10.1826 26.7398 9.97176 26.3482 9.59448C25.9566 9.21719 25.7264 8.70279 25.7062 8.15938C25.7062 7.60242 25.9274 7.06828 26.3213 6.67445C26.7151 6.28062 27.2492 6.05938 27.8062 6.05938C28.3631 6.05938 28.8973 6.28062 29.2911 6.67445C29.6849 7.06828 29.9062 7.60242 29.9062 8.15938Z" fill="#FEFFFE"/>
</svg>
