<svg width="36" height="35" viewBox="0 0 36 35" fill="none" xmlns="http://www.w3.org/2000/svg">
<path d="M18.4639 0C13.7097 0 13.1162 0.021875 11.2495 0.105C9.38574 0.1925 8.11699 0.485625 7.00137 0.91875C5.85074 1.365 4.87366 1.96438 3.90095 2.93708C2.92824 3.90979 2.32741 4.88542 1.88262 6.0375C1.44949 7.15312 1.15491 8.42188 1.06887 10.2856C0.981367 12.1523 0.963867 12.7458 0.963867 17.5C0.963867 22.2542 0.985742 22.8477 1.06887 24.7144C1.15637 26.5767 1.44949 27.8469 1.88262 28.9625C2.322 30.1304 3.01078 31.1885 3.90095 32.0629C4.7749 32.9537 5.83309 33.6426 7.00137 34.0813C8.11845 34.5129 9.3872 34.809 11.2495 34.895C13.1162 34.9825 13.7097 35 18.4639 35C23.218 35 23.8116 34.9781 25.6782 34.895C27.5405 34.8075 28.8107 34.5129 29.9264 34.0813C31.094 33.6413 32.1519 32.9526 33.0268 32.0629C33.9179 31.1892 34.6068 30.1309 35.0451 28.9625C35.4768 27.8469 35.7728 26.5767 35.8589 24.7144C35.9464 22.8477 35.9639 22.2542 35.9639 17.5C35.9639 12.7458 35.942 12.1523 35.8589 10.2856C35.7714 8.42333 35.4768 7.15167 35.0451 6.0375C34.6055 4.86969 33.9168 3.81169 33.0268 2.93708C32.1535 2.04552 31.0951 1.35653 29.9264 0.91875C28.8107 0.485625 27.5405 0.191042 25.6782 0.105C23.8116 0.0175 23.218 0 18.4639 0ZM18.4639 3.15C23.1349 3.15 23.692 3.17333 25.5368 3.25354C27.243 3.33375 28.1691 3.61667 28.7845 3.85875C29.6041 4.17521 30.1845 4.55438 30.7999 5.16542C31.411 5.77792 31.7901 6.35979 32.1066 7.17938C32.3457 7.79479 32.6316 8.72083 32.7089 10.4271C32.792 12.2733 32.811 12.8275 32.811 17.5C32.811 22.1725 32.7891 22.7281 32.703 24.5729C32.6141 26.2792 32.3297 27.2052 32.0891 27.8206C31.8044 28.5801 31.3569 29.268 30.778 29.836C30.2124 30.4154 29.525 30.8618 28.7655 31.1427C28.153 31.3819 27.2124 31.6677 25.5062 31.745C23.6482 31.8281 23.1014 31.8471 18.4201 31.8471C13.7374 31.8471 13.1905 31.8252 11.3341 31.7392C9.62637 31.6502 8.68574 31.3658 8.07324 31.1252C7.31331 30.844 6.6261 30.396 6.0622 29.8142C5.4768 29.2523 5.02782 28.5639 4.7497 27.8017C4.50908 27.1892 4.22616 26.2485 4.1372 24.5423C4.07158 22.7048 4.04824 22.1375 4.04824 17.4781C4.04824 12.8173 4.07158 12.2485 4.1372 10.3892C4.22616 8.68292 4.50908 7.74375 4.7497 7.13125C5.05595 6.3 5.44824 5.73125 6.0622 5.11729C6.67324 4.50625 7.24345 4.1125 8.07324 3.80771C8.68574 3.56563 9.60595 3.28125 11.3122 3.19375C13.1716 3.12813 13.7185 3.10625 18.3982 3.10625L18.4639 3.15ZM18.4639 8.51375C17.2838 8.51375 16.1152 8.74619 15.025 9.19779C13.9347 9.64939 12.9441 10.3113 12.1096 11.1458C11.2752 11.9802 10.6133 12.9708 10.1617 14.0611C9.71005 15.1514 9.47762 16.3199 9.47762 17.5C9.47762 18.6801 9.71005 19.8486 10.1617 20.9389C10.6133 22.0292 11.2752 23.0198 12.1096 23.8542C12.9441 24.6887 13.9347 25.3506 15.025 25.8022C16.1152 26.2538 17.2838 26.4863 18.4639 26.4863C20.8472 26.4863 23.1329 25.5395 24.8181 23.8542C26.5034 22.169 27.4501 19.8833 27.4501 17.5C27.4501 15.1167 26.5034 12.831 24.8181 11.1458C23.1329 9.46051 20.8472 8.51375 18.4639 8.51375ZM18.4639 23.3333C15.241 23.3333 12.6305 20.7229 12.6305 17.5C12.6305 14.2771 15.241 11.6667 18.4639 11.6667C21.6868 11.6667 24.2972 14.2771 24.2972 17.5C24.2972 20.7229 21.6868 23.3333 18.4639 23.3333ZM29.906 8.15938C29.8857 8.70279 29.6556 9.21719 29.264 9.59448C28.8724 9.97176 28.3497 10.1826 27.806 10.1826C27.2622 10.1826 26.7395 9.97176 26.3479 9.59448C25.9563 9.21719 25.7262 8.70279 25.7059 8.15938C25.7059 7.60242 25.9272 7.06828 26.321 6.67445C26.7149 6.28062 27.249 6.05938 27.806 6.05938C28.3629 6.05938 28.8971 6.28062 29.2909 6.67445C29.6847 7.06828 29.906 7.60242 29.906 8.15938Z" fill="#323330"/>
</svg>
