<svg width="54" height="52" viewBox="0 0 54 52" fill="none" xmlns="http://www.w3.org/2000/svg">
<path d="M27.5412 44.1105C27.1919 44.0316 26.8523 43.9224 26.5115 43.8216L26.2545 43.7435C25.922 43.6416 25.5912 43.534 25.2623 43.4208L25.126 43.3714C24.8327 43.2678 24.541 43.1597 24.251 43.047L24.0055 42.9504C23.6883 42.8251 23.3727 42.6943 23.0614 42.5576L22.8728 42.4741C22.6058 42.3535 22.3401 42.2298 22.0759 42.1033L21.8455 41.9927C21.6384 41.8919 21.4333 41.7847 21.2292 41.6793C21.0925 41.6071 20.9533 41.5392 20.8178 41.4641C20.5692 41.3303 20.3229 41.1922 20.0791 41.0498L19.8298 40.9106C19.5059 40.7196 19.1852 40.5231 18.8679 40.3213L18.6085 40.1483C18.3777 40.0004 18.1494 39.8487 17.9238 39.6931L17.7031 39.5383C17.4858 39.3845 17.2701 39.2285 17.056 39.0704L16.7695 38.8536C16.5729 38.704 16.3783 38.5518 16.1856 38.3971L15.9253 38.1883C15.6802 37.9871 15.4378 37.7828 15.198 37.5753L15.1187 37.5082C14.8604 37.2804 14.6056 37.0488 14.3543 36.8134L14.1391 36.6062C13.9531 36.429 13.77 36.2506 13.5898 36.0675L13.3747 35.8528C13.146 35.6187 12.9211 35.381 12.7001 35.1398L12.6672 35.1044C12.4344 34.8493 12.2064 34.59 11.9833 34.3264L11.8045 34.1138C11.6376 33.9133 11.4735 33.7105 11.3121 33.5054L11.132 33.281C10.939 33.0315 10.7495 32.7791 10.5637 32.5242C5.43796 25.532 3.59605 15.8888 7.6933 7.96935L4.06053 12.5766C-0.592326 19.2638 -0.0130918 27.965 3.5412 35.071C3.62558 35.2415 3.7146 35.4089 3.8015 35.5764L3.96814 35.8966L4.0715 36.081L4.25671 36.4126C4.36724 36.6071 4.4803 36.8007 4.59631 36.9943L4.78953 37.3133C4.91778 37.5204 5.04899 37.725 5.18356 37.9292L5.35147 38.1883C5.53625 38.4646 5.7261 38.7405 5.92185 39.0113L5.9383 39.0324L6.03449 39.1624C6.20324 39.3957 6.37789 39.626 6.55424 39.8538L6.74956 40.1027C6.90692 40.3006 7.06681 40.4972 7.23008 40.6929L7.4136 40.9123C7.63254 41.1707 7.8556 41.4255 8.08269 41.6767L8.09619 41.6907L8.12235 41.7194C8.34543 41.9617 8.57214 42.2006 8.80241 42.4361L9.02052 42.6559C9.19897 42.8356 9.38038 43.0124 9.56347 43.1883L9.78538 43.3993C10.0301 43.63 10.2773 43.8561 10.5296 44.0772L10.5414 44.0865L10.6709 44.197C10.8928 44.3894 11.1189 44.5805 11.3472 44.7678L11.6273 44.991C11.8133 45.1403 12.0015 45.2871 12.1909 45.4314L12.4921 45.6605C12.701 45.8145 12.9119 45.9659 13.1245 46.114L13.3549 46.2773L13.4181 46.3224C13.6198 46.4612 13.8261 46.595 14.0324 46.7287L14.2982 46.9059C14.6142 47.1059 14.9352 47.3037 15.2592 47.4948L15.525 47.6446C15.7638 47.7826 16.0044 47.9175 16.2468 48.0492C16.3784 48.12 16.5134 48.1871 16.6459 48.255C16.8176 48.3449 16.988 48.436 17.1627 48.5234L17.2821 48.5811L17.4935 48.6832C17.7639 48.8123 18.0364 48.9393 18.3119 49.0617L18.4849 49.1393C18.8006 49.2774 19.1189 49.4098 19.4396 49.5363L19.672 49.6278C19.969 49.7421 20.2702 49.8552 20.5727 49.9615L20.6858 50.0008C21.0174 50.1168 21.3528 50.2244 21.6903 50.3294L21.9328 50.402C22.2762 50.5053 22.6154 50.6289 22.9698 50.6943C45.4722 54.7979 52.0087 37.172 52.0087 37.172C46.5185 44.3244 36.774 46.2111 27.5412 44.1105V44.1105ZM19.4353 25.8725C19.9395 26.5951 20.4985 27.4549 21.1671 28.0354C21.4118 28.3034 21.6636 28.5648 21.9223 28.8193L22.1214 29.0154C22.3728 29.2603 22.6299 29.4991 22.8926 29.7318L22.9238 29.7588L22.9314 29.7664C23.2254 30.0223 23.5257 30.2709 23.8321 30.5118L24.0363 30.6713C24.3444 30.9086 24.6585 31.1381 24.9784 31.3594L25.0058 31.38C25.1475 31.4779 25.2922 31.569 25.4361 31.6635L25.6394 31.7981C25.8689 31.9453 26.1018 32.0888 26.3381 32.2263L26.4368 32.2837C26.6405 32.401 26.8473 32.5166 27.054 32.6288L27.2738 32.7431C27.4168 32.8178 27.5598 32.8941 27.7058 32.9667L27.7712 32.9962C28.0673 33.1422 28.3664 33.2831 28.6723 33.416L28.8714 33.4979C29.1156 33.6023 29.3617 33.7022 29.6097 33.7974L29.9261 33.9134C30.151 33.9969 30.3767 34.0729 30.6045 34.1492L30.9112 34.2475C31.2348 34.3479 31.5545 34.4749 31.8916 34.531C49.2657 37.4095 53.2765 24.0322 53.2765 24.0322C49.661 29.2394 42.6587 31.7243 35.1869 29.7845C34.8566 29.6976 34.5284 29.6028 34.2027 29.5002L33.9073 29.4044C33.6764 29.3297 33.4468 29.2506 33.2188 29.1673L32.9083 29.0517C32.6598 28.9562 32.4128 28.8566 32.1675 28.753L31.968 28.6686C31.6625 28.5357 31.3603 28.3952 31.0618 28.2472C30.9082 28.1725 30.7576 28.0936 30.607 28.016L30.3446 27.881C30.151 27.7761 29.9593 27.6678 29.7696 27.5562L29.6321 27.4781C29.3972 27.3411 29.1651 27.1993 28.936 27.0529L28.7259 26.9128C28.5746 26.8148 28.4243 26.7154 28.2749 26.6145C27.9565 26.393 27.6434 26.164 27.3358 25.9277L27.1244 25.7611C23.8541 23.1792 21.2616 19.6498 20.0289 15.6483C18.7371 11.4988 19.016 6.84041 21.2536 3.05957L18.5043 6.94082C15.139 11.7831 15.3221 18.2656 17.947 23.3868C18.386 24.2482 18.8832 25.0787 19.4353 25.8725V25.8725ZM37.7477 19.8823C37.8907 19.935 38.0337 19.9822 38.1788 20.0316L38.3691 20.0919C38.5733 20.1561 38.7766 20.2307 38.988 20.2708C48.581 22.1245 51.1835 15.3479 51.8758 14.3502C49.5965 17.632 45.7663 18.4196 41.0661 17.2789C40.6949 17.189 40.2865 17.0549 39.9288 16.9279C39.4692 16.7646 39.0184 16.5774 38.5783 16.3672C37.7433 15.9653 36.9502 15.4814 36.2108 14.9227C32.0051 11.7312 29.3924 5.64398 32.1367 0.686523L30.6517 2.73304C28.6681 5.65241 28.4732 9.27801 29.8498 12.502C31.3014 15.9242 34.2761 18.6086 37.7477 19.8823V19.8823Z" fill="#323330"/>
</svg>
