<svg width="36" height="35" viewBox="0 0 36 35" fill="none" xmlns="http://www.w3.org/2000/svg">
<path d="M30.3185 29.8258H25.1356V21.7044C25.1356 19.7677 25.0963 17.2754 22.4348 17.2754C19.7325 17.2754 19.3198 19.3827 19.3198 21.5615V29.8258H14.1369V13.125H19.1156V15.4015H19.1827C19.8783 14.089 21.57 12.7035 24.0973 12.7035C29.3488 12.7035 30.32 16.1598 30.32 20.6588V29.8258H30.3185ZM8.28312 10.8398C7.88774 10.84 7.49619 10.7622 7.1309 10.6109C6.76561 10.4596 6.43375 10.2377 6.1543 9.95801C5.87486 9.67829 5.65332 9.34621 5.50237 8.98077C5.35141 8.61534 5.27401 8.22372 5.27458 7.82833C5.27487 7.23301 5.45169 6.65114 5.78267 6.15631C6.11365 5.66148 6.58394 5.27591 7.13405 5.04836C7.68417 4.8208 8.28941 4.76149 8.87323 4.87791C9.45706 4.99434 9.99325 5.28127 10.414 5.70243C10.8348 6.12359 11.1212 6.66006 11.237 7.244C11.3529 7.82794 11.293 8.43312 11.0649 8.98302C10.8368 9.53291 10.4508 10.0028 9.95564 10.3333C9.46049 10.6638 8.87845 10.8401 8.28312 10.8398ZM10.8819 29.8258H5.68438V13.125H10.8819V29.8258ZM32.9115 0H3.08271C1.655 0 0.5 1.12875 0.5 2.52146V32.4785C0.5 33.8727 1.655 35 3.08271 35H32.9071C34.3333 35 35.5 33.8727 35.5 32.4785V2.52146C35.5 1.12875 34.3333 0 32.9071 0H32.9115Z" fill="#323330"/>
</svg>
