<svg width="35" height="35" viewBox="0 0 35 35" fill="none" xmlns="http://www.w3.org/2000/svg">
<path fill-rule="evenodd" clip-rule="evenodd" d="M24.0729 11.7064C24.5118 12.976 24.8279 14.2721 24.9318 15.6155C25.0608 17.2821 25.0018 18.9369 24.6504 20.5762C24.6408 20.6213 24.6206 20.6637 24.6056 20.7074C24.4954 20.7077 24.383 20.694 24.2752 20.7107C23.365 20.8537 22.4555 21.0019 21.5461 21.1493C20.606 21.3016 19.6645 21.4479 18.7261 21.6106C18.3936 21.668 17.9821 21.5994 17.8478 22.0593C17.844 22.0719 17.8057 22.0741 17.7836 22.0812L17.829 19.3329L17.7827 12.7015L18.2208 12.6263C18.9372 12.509 19.6536 12.39 20.3706 12.276C21.2261 12.1401 22.0826 12.008 22.9387 11.8754C23.3163 11.8166 23.6945 11.7627 24.0729 11.7064V11.7064Z" fill="#323330"/>
<path fill-rule="evenodd" clip-rule="evenodd" d="M16.879 30.0929C16.4169 29.6956 15.9387 29.3158 15.4957 28.898C13.1122 26.6498 11.3687 24.0037 10.5101 20.8135C10.2736 19.9355 10.1158 19.0433 10.0652 18.136C10.0297 17.5011 9.97829 16.8604 10.0231 16.2288C10.1426 14.5488 10.3854 12.8849 10.8782 11.2667L10.9052 11.229C10.9531 11.2927 11.022 11.349 11.0463 11.4209C11.5273 12.8373 12.0047 14.2548 12.4797 15.6732C13.9721 20.1302 15.4626 24.5883 16.9575 29.0442C16.9868 29.1312 17.0625 29.2026 17.1169 29.281L16.879 30.0929V30.0929Z" fill="#323330"/>
<path fill-rule="evenodd" clip-rule="evenodd" d="M24.0729 11.7064C23.6945 11.7627 23.316 11.8166 22.9384 11.8748C22.0823 12.0075 21.2259 12.1395 20.3703 12.2754C19.6533 12.3894 18.9369 12.5084 18.2205 12.6257L17.7825 12.7009L17.7792 12.4151C17.7647 12.1803 17.7398 11.9457 17.7371 11.7108C17.7182 10.2129 17.7065 8.71499 17.6879 7.2171C17.6764 6.27948 17.6592 5.34214 17.64 4.4048C17.6283 3.82238 17.6157 3.23968 17.5894 2.65808C17.5752 2.34554 17.5249 2.03464 17.5044 1.7221C17.4929 1.54245 17.5088 1.36144 17.5123 1.18097C17.7357 1.61382 17.9542 2.04995 18.1839 2.47952C18.5467 3.15874 19.1248 3.65913 19.6451 4.20519C21.7022 6.36316 23.1626 8.87222 24.0729 11.7064V11.7064Z" fill="#323330"/>
<path fill-rule="evenodd" clip-rule="evenodd" d="M17.7833 22.0809C17.8054 22.0738 17.844 22.0716 17.8475 22.059C17.9818 21.5991 18.3933 21.6677 18.7258 21.6103C19.6642 21.4479 20.6057 21.3013 21.5458 21.149C22.4552 21.0017 23.3647 20.8535 24.2749 20.7104C24.3827 20.6935 24.4951 20.7074 24.6053 20.7072C24.4352 21.3142 24.3012 21.9344 24.0855 22.5247C23.8405 23.1944 23.5441 23.8479 23.2293 24.4885C22.7582 25.4441 22.175 26.3403 21.4922 27.1581C20.9674 27.7892 20.3826 28.3724 19.7963 28.9486C19.4723 29.2671 19.0903 29.5266 18.7348 29.8129L18.6427 29.75L18.3107 29.4662L17.9673 28.7134C17.7327 27.8353 17.6047 26.9321 17.5861 26.0233L17.5924 25.8699L17.6392 25.2066C17.6548 24.9802 17.6755 24.754 17.6851 24.5271C17.7204 23.7117 17.751 22.8963 17.7833 22.0809V22.0809Z" fill="#323330"/>
<path fill-rule="evenodd" clip-rule="evenodd" d="M17.7833 22.0809C17.751 22.8963 17.7204 23.7117 17.6857 24.5273C17.6761 24.7543 17.6553 24.9804 17.6397 25.2068L17.4306 25.2859C16.966 23.9181 16.5011 22.5649 16.0464 21.2081C15.2945 18.9634 14.5515 16.7152 13.8007 14.47C13.1942 12.6578 12.5835 10.847 11.9686 9.03765C11.9399 8.95289 11.8573 8.88672 11.7999 8.8118L13.1387 6.35031C13.1846 6.43016 13.2453 6.5048 13.2743 6.59066C13.8943 8.42327 14.5112 10.2569 15.1249 12.0917C15.9223 14.4788 16.7147 16.8678 17.5115 19.2552C17.5432 19.3506 17.5957 19.4387 17.6457 19.5456L17.8289 19.3323L17.7833 22.0809V22.0809Z" fill="#323330"/>
<path fill-rule="evenodd" clip-rule="evenodd" d="M11.8002 8.81207C11.8576 8.88699 11.9399 8.95317 11.9689 9.03793C12.5838 10.8473 13.1945 12.6581 13.8009 14.4703C14.5518 16.7155 15.2947 18.9637 16.0467 21.2084C16.5011 22.5649 16.966 23.9184 17.4308 25.2861L17.64 25.2071L17.5933 25.8705L17.5509 26.0233C17.4781 26.7496 17.4169 27.4775 17.3283 28.2021C17.2837 28.5652 17.1891 28.9218 17.1172 29.2813C17.0631 29.2029 16.987 29.1315 16.9578 29.0445C15.4629 24.5883 13.9724 20.1305 12.48 15.6734C12.0052 14.255 11.5274 12.8376 11.0466 11.4212C11.0223 11.3493 10.9536 11.293 10.9055 11.2293L11.8002 8.81207V8.81207Z" fill="#323330"/>
<path fill-rule="evenodd" clip-rule="evenodd" d="M17.8287 19.3326L17.6455 19.5459C17.5954 19.439 17.5429 19.3506 17.5112 19.2555C16.7147 16.8681 15.922 14.4791 15.1246 12.092C14.5109 10.2572 13.8941 8.42356 13.274 6.59095C13.2453 6.50509 13.1846 6.43017 13.1384 6.3506L14.7941 4.17267C14.8463 4.2424 14.9207 4.30447 14.9477 4.38294C15.4074 5.72853 15.8629 7.07575 16.3157 8.4238C16.7387 9.68271 17.1555 10.9435 17.5834 12.2008C17.6121 12.285 17.7119 12.3446 17.7786 12.4157L17.7819 12.7015C17.7978 14.9114 17.8134 17.1221 17.8287 19.3326V19.3326Z" fill="#323330"/>
<path fill-rule="evenodd" clip-rule="evenodd" d="M17.7792 12.4152C17.7125 12.3441 17.6127 12.2845 17.584 12.2002C17.156 10.943 16.7393 9.68216 16.3163 8.42326C15.8635 7.07521 15.4079 5.72826 14.9483 4.3824C14.9212 4.30392 14.8468 4.24185 14.7946 4.17212C15.333 3.64494 15.8547 3.09888 16.4147 2.59603C16.9127 2.14923 17.313 1.67017 17.3313 0.964155C17.3321 0.934897 17.3474 0.90564 17.3709 0.823608L17.5129 1.18072C17.5093 1.36146 17.4932 1.5422 17.5049 1.72185C17.5254 2.03439 17.5758 2.34529 17.59 2.65783C17.6162 3.23943 17.6288 3.82212 17.6406 4.40455C17.6594 5.34189 17.6766 6.27923 17.6884 7.21685C17.7067 8.71474 17.7188 10.2126 17.7376 11.7105C17.7398 11.946 17.7644 12.1803 17.7792 12.4152V12.4152Z" fill="#323330"/>
<path fill-rule="evenodd" clip-rule="evenodd" d="M17.1166 29.2811C17.1886 28.9215 17.2832 28.5647 17.3277 28.2018C17.4166 27.4775 17.4776 26.7493 17.5503 26.0231L17.5684 26.0203L17.5864 26.0233C17.605 26.9321 17.733 27.8353 17.9676 28.7134C17.9195 28.7768 17.8514 28.8334 17.8259 28.9051C17.6272 29.4656 17.4398 30.0306 17.24 30.5911C17.2126 30.6677 17.1366 30.7273 17.083 30.7945L16.8788 30.0929L17.1166 29.2811V29.2811Z" fill="#323330"/>
<path fill-rule="evenodd" clip-rule="evenodd" d="M17.0833 30.7948C17.1369 30.7276 17.2132 30.6679 17.2402 30.5914C17.4401 30.0308 17.6277 29.4662 17.8262 28.9054C17.8516 28.8337 17.9195 28.7771 17.9679 28.7137L18.311 29.4667C18.2432 29.563 18.1497 29.6497 18.112 29.7568L17.4546 31.687C17.4275 31.7644 17.3351 31.8191 17.2733 31.8845L17.0833 30.7948V30.7948Z" fill="#323330"/>
<path fill-rule="evenodd" clip-rule="evenodd" d="M17.2733 31.8842C17.3354 31.8191 17.4275 31.7641 17.4546 31.6867L18.1119 29.7565C18.1494 29.6496 18.2432 29.5627 18.311 29.4664L18.6432 29.75C18.4827 29.9086 18.3936 30.0918 18.4472 30.3234L18.3463 30.6537C18.3003 30.7103 18.2339 30.7595 18.2112 30.8243C17.9818 31.4814 17.7628 32.142 17.5317 32.7991C17.5025 32.8825 17.4212 32.9478 17.3638 33.0211C17.334 32.6419 17.3037 32.2634 17.2733 31.8842V31.8842Z" fill="#323330"/>
<path fill-rule="evenodd" clip-rule="evenodd" d="M17.3641 33.0211C17.4212 32.9476 17.5025 32.8822 17.532 32.7991C17.763 32.1423 17.9821 31.4817 18.2115 30.8243C18.2342 30.7598 18.3004 30.7103 18.3466 30.6537L18.2074 32.1699C18.1702 32.2129 18.1163 32.2503 18.0986 32.3004C17.9413 32.7417 17.7931 33.1863 17.6354 33.6276C17.6028 33.7187 17.5405 33.7991 17.4918 33.8841C17.4486 33.8275 17.3712 33.7728 17.3677 33.7138C17.3537 33.4838 17.3633 33.2522 17.3641 33.0211V33.0211Z" fill="#323330"/>
<path fill-rule="evenodd" clip-rule="evenodd" d="M17.4915 33.8841C17.5402 33.7988 17.6025 33.7184 17.6351 33.6276C17.7931 33.1866 17.941 32.742 18.0983 32.3004C18.116 32.2503 18.1702 32.2131 18.2071 32.1699L18.2104 33.1652L17.8773 34.0195L17.4915 33.8841V33.8841Z" fill="#323330"/>
<path fill-rule="evenodd" clip-rule="evenodd" d="M17.8773 34.0197L18.2104 33.1655L18.279 34.1761L17.8773 34.0197V34.0197Z" fill="#323330"/>
<path fill-rule="evenodd" clip-rule="evenodd" d="M18.4472 30.3237C18.3936 30.0921 18.4825 29.9086 18.6432 29.7503L18.7354 29.8132L18.4472 30.3237V30.3237Z" fill="#323330"/>
<path fill-rule="evenodd" clip-rule="evenodd" d="M17.5864 26.0236L17.5684 26.0206L17.5503 26.0233L17.5927 25.8705L17.5864 26.0236V26.0236Z" fill="#323330"/>
</svg>
