<svg width="35" height="35" viewBox="0 0 35 35" fill="none" xmlns="http://www.w3.org/2000/svg">
<path fill-rule="evenodd" clip-rule="evenodd" d="M24.0729 11.7064C24.5117 12.976 24.8278 14.2721 24.9317 15.6155C25.0608 17.2821 25.0017 18.9369 24.6504 20.5762C24.6408 20.6213 24.6206 20.6637 24.6055 20.7074C24.4953 20.7077 24.383 20.694 24.2752 20.7107C23.3649 20.8537 22.4555 21.0019 21.546 21.1493C20.606 21.3016 19.6645 21.4479 18.7261 21.6106C18.3936 21.668 17.9821 21.5994 17.8478 22.0593C17.844 22.0719 17.8057 22.0741 17.7835 22.0812L17.8289 19.3329L17.7827 12.7015L18.2208 12.6263C18.9372 12.509 19.6536 12.39 20.3705 12.276C21.2261 12.1401 22.0825 12.008 22.9387 11.8754C23.3163 11.8166 23.6944 11.7627 24.0729 11.7064V11.7064Z" fill="#FEFFFE"/>
<path fill-rule="evenodd" clip-rule="evenodd" d="M16.8792 30.0929C16.4171 29.6956 15.9389 29.3158 15.4959 28.898C13.1124 26.6498 11.3689 24.0037 10.5103 20.8135C10.2738 19.9355 10.116 19.0433 10.0655 18.136C10.0299 17.5011 9.97851 16.8604 10.0234 16.2288C10.1428 14.5488 10.3857 12.8849 10.8784 11.2667L10.9055 11.229C10.9533 11.2927 11.0222 11.349 11.0466 11.4209C11.5275 12.8373 12.005 14.2548 12.4799 15.6732C13.9723 20.1302 15.4628 24.5883 16.9577 29.0442C16.987 29.1312 17.0627 29.2026 17.1171 29.281L16.8792 30.0929V30.0929Z" fill="#FEFFFE"/>
<path fill-rule="evenodd" clip-rule="evenodd" d="M24.0731 11.7064C23.6947 11.7627 23.3162 11.8166 22.9386 11.8748C22.0825 12.0075 21.2261 12.1395 20.3705 12.2754C19.6535 12.3894 18.9371 12.5084 18.2207 12.6257L17.7827 12.7009L17.7794 12.4151C17.7649 12.1803 17.74 11.9457 17.7373 11.7108C17.7184 10.2129 17.7067 8.71499 17.6881 7.2171C17.6766 6.27948 17.6594 5.34214 17.6402 4.4048C17.6285 3.82238 17.6159 3.23968 17.5896 2.65808C17.5754 2.34554 17.5251 2.03464 17.5046 1.7221C17.4931 1.54245 17.509 1.36144 17.5125 1.18097C17.7359 1.61382 17.9544 2.04995 18.1841 2.47952C18.5469 3.15874 19.125 3.65913 19.6453 4.20519C21.7024 6.36316 23.1628 8.87222 24.0731 11.7064V11.7064Z" fill="#FEFFFE"/>
<path fill-rule="evenodd" clip-rule="evenodd" d="M17.7831 22.0809C17.8052 22.0738 17.8438 22.0716 17.8473 22.059C17.9816 21.5991 18.3931 21.6677 18.7256 21.6103C19.6641 21.4479 20.6055 21.3013 21.5456 21.149C22.455 21.0017 23.3645 20.8535 24.2748 20.7104C24.3825 20.6935 24.4949 20.7074 24.6051 20.7072C24.435 21.3142 24.301 21.9344 24.0853 22.5247C23.8403 23.1944 23.5439 23.8479 23.2291 24.4885C22.758 25.4441 22.1748 26.3403 21.492 27.1581C20.9673 27.7892 20.3824 28.3724 19.7961 28.9486C19.4721 29.2671 19.0901 29.5266 18.7346 29.8129L18.6425 29.75L18.3105 29.4662L17.9671 28.7134C17.7325 27.8353 17.6045 26.9321 17.5859 26.0233L17.5922 25.8699L17.639 25.2066C17.6546 24.9802 17.6754 24.754 17.6849 24.5271C17.7202 23.7117 17.7508 22.8963 17.7831 22.0809V22.0809Z" fill="#FEFFFE"/>
<path fill-rule="evenodd" clip-rule="evenodd" d="M17.7832 22.0809C17.7509 22.8963 17.7203 23.7117 17.6855 24.5273C17.676 24.7543 17.6552 24.9804 17.6396 25.2068L17.4304 25.2859C16.9659 23.9181 16.501 22.5649 16.0463 21.2081C15.2943 18.9634 14.5514 16.7152 13.8005 14.47C13.1941 12.6578 12.5834 10.847 11.9685 9.03765C11.9398 8.95289 11.8572 8.88672 11.7998 8.8118L13.1386 6.35031C13.1845 6.43016 13.2452 6.5048 13.2742 6.59066C13.8942 8.42327 14.5111 10.2569 15.1248 12.0917C15.9221 14.4788 16.7146 16.8678 17.5114 19.2552C17.5431 19.3506 17.5956 19.4387 17.6456 19.5456L17.8288 19.3323L17.7832 22.0809V22.0809Z" fill="#FEFFFE"/>
<path fill-rule="evenodd" clip-rule="evenodd" d="M11.8 8.81207C11.8574 8.88699 11.9397 8.95317 11.9687 9.03793C12.5836 10.8473 13.1942 12.6581 13.8007 14.4703C14.5516 16.7155 15.2945 18.9637 16.0464 21.2084C16.5009 22.5649 16.9657 23.9184 17.4306 25.2861L17.6398 25.2071L17.593 25.8705L17.5506 26.0233C17.4779 26.7496 17.4166 27.4775 17.328 28.2021C17.2835 28.5652 17.1889 28.9218 17.117 29.2813C17.0628 29.2029 16.9868 29.1315 16.9575 29.0445C15.4627 24.5883 13.9721 20.1305 12.4797 15.6734C12.0049 14.255 11.5271 12.8376 11.0464 11.4212C11.022 11.3493 10.9534 11.293 10.9053 11.2293L11.8 8.81207V8.81207Z" fill="#FEFFFE"/>
<path fill-rule="evenodd" clip-rule="evenodd" d="M17.8285 19.3326L17.6453 19.5459C17.5952 19.439 17.5427 19.3506 17.511 19.2555C16.7145 16.8681 15.9218 14.4791 15.1244 12.092C14.5107 10.2572 13.8938 8.42356 13.2738 6.59095C13.2451 6.50509 13.1844 6.43017 13.1382 6.3506L14.7938 4.17267C14.8461 4.2424 14.9204 4.30447 14.9475 4.38294C15.4072 5.72853 15.8627 7.07575 16.3155 8.4238C16.7385 9.68271 17.1553 10.9435 17.5832 12.2008C17.6119 12.285 17.7117 12.3446 17.7784 12.4157L17.7817 12.7015C17.7976 14.9114 17.8131 17.1221 17.8285 19.3326V19.3326Z" fill="#FEFFFE"/>
<path fill-rule="evenodd" clip-rule="evenodd" d="M17.779 12.4152C17.7123 12.3441 17.6125 12.2845 17.5838 12.2002C17.1558 10.943 16.7391 9.68216 16.3161 8.42326C15.8633 7.07521 15.4078 5.72826 14.9481 4.3824C14.921 4.30392 14.8467 4.24185 14.7944 4.17212C15.3328 3.64494 15.8546 3.09888 16.4146 2.59603C16.9125 2.14923 17.3128 1.67017 17.3311 0.964155C17.3319 0.934897 17.3472 0.90564 17.3708 0.823608L17.5127 1.18072C17.5091 1.36146 17.493 1.5422 17.5047 1.72185C17.5253 2.03439 17.5756 2.34529 17.5898 2.65783C17.616 3.23943 17.6286 3.82212 17.6404 4.40455C17.6592 5.34189 17.6765 6.27923 17.6882 7.21685C17.7065 8.71474 17.7186 10.2126 17.7374 11.7105C17.7396 11.946 17.7642 12.1803 17.779 12.4152V12.4152Z" fill="#FEFFFE"/>
<path fill-rule="evenodd" clip-rule="evenodd" d="M17.1168 29.2811C17.1887 28.9215 17.2833 28.5647 17.3279 28.2018C17.4168 27.4775 17.4777 26.7493 17.5505 26.0231L17.5685 26.0203L17.5866 26.0233C17.6052 26.9321 17.7331 27.8353 17.9677 28.7134C17.9196 28.7768 17.8515 28.8334 17.8261 28.9051C17.6273 29.4656 17.44 30.0306 17.2401 30.5911C17.2128 30.6677 17.1368 30.7273 17.0832 30.7945L16.8789 30.0929L17.1168 29.2811V29.2811Z" fill="#FEFFFE"/>
<path fill-rule="evenodd" clip-rule="evenodd" d="M17.0835 30.7948C17.1371 30.7276 17.2134 30.6679 17.2404 30.5914C17.4403 30.0308 17.6279 29.4662 17.8264 28.9054C17.8519 28.8337 17.9197 28.7771 17.9681 28.7137L18.3112 29.4667C18.2434 29.563 18.1499 29.6497 18.1122 29.7568L17.4548 31.687C17.4278 31.7644 17.3353 31.8191 17.2735 31.8845L17.0835 30.7948V30.7948Z" fill="#FEFFFE"/>
<path fill-rule="evenodd" clip-rule="evenodd" d="M17.2734 31.8842C17.3355 31.8191 17.4277 31.7641 17.4547 31.6867L18.1121 29.7565C18.1495 29.6496 18.2433 29.5627 18.3111 29.4664L18.6434 29.75C18.4829 29.9086 18.3937 30.0918 18.4473 30.3234L18.3464 30.6537C18.3005 30.7103 18.234 30.7595 18.2113 30.8243C17.9819 31.4814 17.7629 32.142 17.5318 32.7991C17.5026 32.8825 17.4214 32.9478 17.3639 33.0211C17.3341 32.6419 17.3038 32.2634 17.2734 31.8842V31.8842Z" fill="#FEFFFE"/>
<path fill-rule="evenodd" clip-rule="evenodd" d="M17.3643 33.0211C17.4215 32.9476 17.5027 32.8822 17.5322 32.7991C17.7633 32.1423 17.9823 31.4817 18.2117 30.8243C18.2344 30.7598 18.3006 30.7103 18.3468 30.6537L18.2076 32.1699C18.1704 32.2129 18.1165 32.2503 18.0988 32.3004C17.9415 32.7417 17.7933 33.1863 17.6356 33.6276C17.603 33.7187 17.5407 33.7991 17.492 33.8841C17.4488 33.8275 17.3714 33.7728 17.3679 33.7138C17.3539 33.4838 17.3635 33.2522 17.3643 33.0211V33.0211Z" fill="#FEFFFE"/>
<path fill-rule="evenodd" clip-rule="evenodd" d="M17.4917 33.8841C17.5404 33.7988 17.6027 33.7184 17.6353 33.6276C17.7933 33.1866 17.9412 32.742 18.0985 32.3004C18.1162 32.2503 18.1704 32.2131 18.2073 32.1699L18.2106 33.1652L17.8775 34.0195L17.4917 33.8841V33.8841Z" fill="#FEFFFE"/>
<path fill-rule="evenodd" clip-rule="evenodd" d="M17.8774 34.0197L18.2105 33.1655L18.2791 34.1761L17.8774 34.0197V34.0197Z" fill="#FEFFFE"/>
<path fill-rule="evenodd" clip-rule="evenodd" d="M18.4473 30.3237C18.3937 30.0921 18.4825 29.9086 18.6433 29.7503L18.7355 29.8132L18.4473 30.3237V30.3237Z" fill="#FEFFFE"/>
<path fill-rule="evenodd" clip-rule="evenodd" d="M17.5864 26.0236L17.5683 26.0206L17.5503 26.0233L17.5927 25.8705L17.5864 26.0236V26.0236Z" fill="#FEFFFE"/>
</svg>
