<svg width="30" height="35" viewBox="0 0 30 35" fill="none" xmlns="http://www.w3.org/2000/svg">
<path d="M28.8358 8.29446L16.778 1.29309C16.0176 0.859965 15.0275 0.859965 14.2611 1.29309L2.07449 8.29446C1.28973 8.7459 0.734375 9.59438 0.734375 10.5019V24.4861C0.734375 25.3936 1.30422 26.2423 2.08898 26.6963L5.30871 28.525C6.84762 29.283 7.39148 29.283 8.09176 29.283C10.3703 29.283 11.6719 27.9051 11.6719 25.5019V11.696C11.6719 11.5011 11.5704 11.2109 11.379 11.2109H9.84148C9.6468 11.2109 9.21094 11.5011 9.21094 11.6957V25.5016C9.21094 26.5669 8.24734 27.627 6.44648 26.7266L3.11957 24.809C3.00363 24.7461 2.92188 24.6195 2.92188 24.4861V10.5019C2.92188 10.3701 3.07363 10.2378 3.19039 10.1702L15.3376 3.1809C15.4511 3.11664 15.6179 3.11664 15.7311 3.1809L27.73 10.1686C27.8449 10.2378 27.8044 10.366 27.8044 10.5019V24.4861C27.8044 24.6195 27.8545 24.7494 27.741 24.8136L15.6862 31.8071C15.5829 31.8691 15.4546 31.8691 15.3414 31.8071L12.2496 29.9616C12.1564 29.9075 12.0457 29.8881 11.9563 29.9381C11.096 30.4257 10.9374 30.4905 10.1305 30.7702C9.93199 30.8394 9.63914 30.9594 10.2426 31.2977L14.2889 33.6913C14.6753 33.9145 15.1135 34.032 15.5596 34.032C16.0086 34.032 16.4483 33.9156 16.8357 33.6913L28.8355 26.6963C29.6203 26.2391 29.9922 25.3936 29.9922 24.4861V10.5019C29.9922 9.59438 29.6203 8.74809 28.8358 8.29446V8.29446ZM19.3035 22.2701C16.0972 22.2701 15.3909 21.3856 15.1555 19.7911C15.1281 19.6194 14.9824 19.4141 14.8077 19.4141H13.2406C13.0467 19.4141 12.8909 19.6492 12.8909 19.8423C12.8909 21.8838 14.0007 24.3573 19.3038 24.3573C23.1426 24.3573 25.3435 22.8657 25.3435 20.2259C25.3435 17.6086 23.5752 16.9217 19.8523 16.4289C16.0893 15.9316 15.707 15.6803 15.707 14.7987C15.707 14.0719 16.0307 13.1026 18.8171 13.1026C21.3067 13.1026 22.2244 13.6369 22.602 15.315C22.6343 15.4727 22.7784 15.5859 22.9411 15.5859H24.5144C24.6112 15.5859 24.7036 15.5468 24.7714 15.4777C24.8371 15.4033 24.8718 15.31 24.863 15.21C24.6194 12.3203 22.6996 10.9736 18.8168 10.9736C15.363 10.9736 13.3027 12.4321 13.3027 14.8769C13.3027 17.5287 15.3526 18.2615 18.668 18.5894C22.6343 18.9782 22.9427 19.5579 22.9427 20.338C22.9427 21.6929 21.855 22.2701 19.3035 22.2701Z" fill="#FEFFFE"/>
</svg>
