<svg width="54" height="48" viewBox="0 0 54 48" fill="none" xmlns="http://www.w3.org/2000/svg">
<path d="M27.0003 28.8092C29.6564 28.8092 31.8097 26.656 31.8097 23.9998C31.8097 21.3437 29.6564 19.1904 27.0003 19.1904C24.3441 19.1904 22.1909 21.3437 22.1909 23.9998C22.1909 26.656 24.3441 28.8092 27.0003 28.8092Z" fill="#FEFFFE"/>
<path d="M45.2674 16.0686C44.3393 15.7311 43.3689 15.3936 42.3564 15.0982C42.6096 14.0857 42.8205 13.0732 42.9893 12.1029C43.8752 6.53418 42.9049 2.61074 40.2049 1.09199C39.4033 0.627929 38.5174 0.416992 37.5049 0.416992C34.5518 0.416992 30.7971 2.61074 27.0002 6.28105C23.2033 2.61074 19.4486 0.416992 16.4955 0.416992C15.483 0.416992 14.5971 0.627929 13.7955 1.09199C11.0955 2.65293 10.1252 6.57637 11.0111 12.1029C11.1799 13.0732 11.3908 14.0857 11.6439 15.0982C10.6314 15.3936 9.66113 15.6889 8.73301 16.0686C3.45957 18.0936 0.59082 20.8779 0.59082 23.9998C0.59082 27.1217 3.50176 29.9061 8.73301 31.9311C9.66113 32.2686 10.6314 32.6061 11.6439 32.9014C11.3908 33.9139 11.1799 34.9264 11.0111 35.8967C10.1252 41.4654 11.0955 45.3889 13.7955 46.9076C14.5971 47.3717 15.483 47.5826 16.4955 47.5826C19.4908 47.5826 23.2455 45.3889 27.0002 41.7186C30.7971 45.3889 34.5518 47.5826 37.5049 47.5826C38.5174 47.5826 39.4033 47.3717 40.2049 46.9076C42.9049 45.3467 43.8752 41.4232 42.9893 35.8967C42.8205 34.9264 42.6096 33.9139 42.3564 32.9014C43.3689 32.6061 44.3393 32.3107 45.2674 31.9311C50.5408 29.9061 53.4096 27.1217 53.4096 23.9998C53.4096 20.8779 50.5408 18.0936 45.2674 16.0686V16.0686ZM39.0236 3.20137C40.7533 4.21387 41.3439 7.33574 40.6268 11.7654C40.5002 12.6514 40.2893 13.5795 40.0361 14.5498C37.8424 14.0436 35.5221 13.7061 33.0752 13.4951C31.6408 11.4701 30.1643 9.65605 28.6877 8.01074C31.8096 4.93105 34.9736 2.82168 37.5471 2.82168C38.0955 2.82168 38.6018 2.94824 39.0236 3.20137V3.20137ZM34.2986 28.2186C33.5393 29.5686 32.6533 30.9186 31.7252 32.2686C30.1643 32.3951 28.6033 32.4373 27.0002 32.4373C25.3549 32.4373 23.7939 32.3951 22.2752 32.2686C21.3471 30.9186 20.5033 29.5686 19.7439 28.2186C18.9424 26.8264 18.183 25.392 17.508 23.9998C18.183 22.6076 18.9424 21.1732 19.7439 19.7811C20.5033 18.4311 21.3893 17.0811 22.3174 15.7311C23.8783 15.6045 25.4393 15.5623 27.0424 15.5623C28.6877 15.5623 30.2486 15.6045 31.7674 15.7311C32.6955 17.0811 33.5393 18.4311 34.2986 19.7811C35.1002 21.1732 35.8596 22.6076 36.5346 23.9998C35.8174 25.392 35.1002 26.7842 34.2986 28.2186ZM37.8002 26.8264C38.433 28.3029 38.9393 29.7373 39.4033 31.1717C37.9689 31.5092 36.4502 31.7623 34.8471 31.9732C35.3533 31.1717 35.9018 30.3279 36.3658 29.442C36.8721 28.5561 37.3361 27.6701 37.8002 26.8264ZM27.0002 38.2592C25.9877 37.1623 25.0174 35.9811 24.0893 34.7576C25.0596 34.7998 26.0299 34.842 27.0002 34.842C27.9705 34.842 28.9408 34.7998 29.9111 34.7576C28.983 35.9811 28.0127 37.1623 27.0002 38.2592ZM19.1533 31.9311C17.5502 31.7201 16.0314 31.467 14.5971 31.1295C15.0611 29.7373 15.5674 28.2607 16.2002 26.7842C16.6643 27.6279 17.1283 28.5139 17.6346 29.3576C18.1408 30.2857 18.6471 31.0873 19.1533 31.9311V31.9311ZM16.2002 21.1732C15.5674 19.6967 15.0611 18.2623 14.5971 16.8279C16.0314 16.4904 17.5502 16.2373 19.1533 16.0264C18.6471 16.8279 18.0986 17.6717 17.6346 18.5576C17.1283 19.4436 16.6643 20.3295 16.2002 21.1732V21.1732ZM27.0002 9.74043C28.0127 10.8373 28.983 12.0186 29.9111 13.242C28.9408 13.1998 27.9705 13.1576 27.0002 13.1576C26.0299 13.1576 25.0596 13.1998 24.0893 13.242C25.0174 12.0186 25.9877 10.8373 27.0002 9.74043ZM36.3658 18.5998L34.8471 16.0686C36.4502 16.2795 37.9689 16.5326 39.4033 16.8701C38.9393 18.2623 38.433 19.7389 37.8002 21.2154C37.3361 20.3295 36.8721 19.4436 36.3658 18.5998ZM13.3736 11.7654C12.6564 7.33574 13.2471 4.21387 14.9768 3.20137C15.3986 2.94824 15.9049 2.82168 16.4533 2.82168C18.9846 2.82168 22.1486 4.88887 25.3127 8.01074C23.8361 9.61387 22.3596 11.4701 20.9252 13.4951C18.4783 13.7061 16.158 14.0857 13.9643 14.5498C13.7111 13.5795 13.5424 12.6514 13.3736 11.7654V11.7654ZM2.95332 23.9998C2.95332 22.017 5.35801 19.9076 9.57676 18.3467C10.4205 18.0092 11.3486 17.7139 12.2768 17.4607C12.9518 19.5701 13.7955 21.8061 14.808 24.042C13.7955 26.2779 12.9096 28.4717 12.2768 30.5811C6.45488 28.8936 2.95332 26.3623 2.95332 23.9998ZM14.9768 44.7982C13.2471 43.7857 12.6564 40.6639 13.3736 36.2342C13.5002 35.3482 13.7111 34.4201 13.9643 33.4498C16.158 33.9561 18.4783 34.2936 20.9252 34.5045C22.3596 36.5295 23.8361 38.3436 25.3127 39.9889C22.1908 43.0686 19.0268 45.1779 16.4533 45.1779C15.9049 45.1779 15.3986 45.0514 14.9768 44.7982ZM40.6268 36.2342C41.3439 40.6639 40.7533 43.7857 39.0236 44.7982C38.6018 45.0514 38.0955 45.1779 37.5471 45.1779C35.0158 45.1779 31.8518 43.1107 28.6877 39.9889C30.1643 38.3857 31.6408 36.5295 33.0752 34.5045C35.5221 34.2936 37.8424 33.9139 40.0361 33.4498C40.2893 34.4201 40.458 35.3482 40.6268 36.2342V36.2342ZM44.4236 29.6529C43.5799 29.9904 42.6518 30.2857 41.7236 30.5389C41.0486 28.4295 40.2049 26.1936 39.1924 23.9576C40.2049 21.7217 41.0908 19.5279 41.7236 17.4186C47.5455 19.1061 51.0471 21.6373 51.0471 23.9998C51.0471 25.9826 48.6002 28.092 44.4236 29.6529Z" fill="#FEFFFE"/>
</svg>
