<svg width="54" height="48" viewBox="0 0 54 48" fill="none" xmlns="http://www.w3.org/2000/svg">
<path d="M26.9999 28.8092C29.6561 28.8092 31.8093 26.656 31.8093 23.9998C31.8093 21.3437 29.6561 19.1904 26.9999 19.1904C24.3438 19.1904 22.1906 21.3437 22.1906 23.9998C22.1906 26.656 24.3438 28.8092 26.9999 28.8092Z" fill="#323330"/>
<path d="M45.2671 16.0686C44.339 15.7311 43.3687 15.3936 42.3562 15.0982C42.6093 14.0857 42.8203 13.0732 42.989 12.1029C43.875 6.53418 42.9046 2.61074 40.2046 1.09199C39.4031 0.627929 38.5171 0.416992 37.5046 0.416992C34.5515 0.416992 30.7968 2.61074 27 6.28105C23.2031 2.61074 19.4484 0.416992 16.4953 0.416992C15.4828 0.416992 14.5968 0.627929 13.7953 1.09199C11.0953 2.65293 10.125 6.57637 11.0109 12.1029C11.1796 13.0732 11.3906 14.0857 11.6437 15.0982C10.6312 15.3936 9.66089 15.6889 8.73276 16.0686C3.45933 18.0936 0.590576 20.8779 0.590576 23.9998C0.590576 27.1217 3.50151 29.9061 8.73276 31.9311C9.66089 32.2686 10.6312 32.6061 11.6437 32.9014C11.3906 33.9139 11.1796 34.9264 11.0109 35.8967C10.125 41.4654 11.0953 45.3889 13.7953 46.9076C14.5968 47.3717 15.4828 47.5826 16.4953 47.5826C19.4906 47.5826 23.2453 45.3889 27 41.7186C30.7968 45.3889 34.5515 47.5826 37.5046 47.5826C38.5171 47.5826 39.4031 47.3717 40.2046 46.9076C42.9046 45.3467 43.875 41.4232 42.989 35.8967C42.8203 34.9264 42.6093 33.9139 42.3562 32.9014C43.3687 32.6061 44.339 32.3107 45.2671 31.9311C50.5406 29.9061 53.4093 27.1217 53.4093 23.9998C53.4093 20.8779 50.5406 18.0936 45.2671 16.0686V16.0686ZM39.0234 3.20137C40.7531 4.21387 41.3437 7.33574 40.6265 11.7654C40.5 12.6514 40.289 13.5795 40.0359 14.5498C37.8421 14.0436 35.5218 13.7061 33.075 13.4951C31.6406 11.4701 30.164 9.65605 28.6875 8.01074C31.8093 4.93105 34.9734 2.82168 37.5468 2.82168C38.0953 2.82168 38.6015 2.94824 39.0234 3.20137V3.20137ZM34.2984 28.2186C33.539 29.5686 32.6531 30.9186 31.7249 32.2686C30.164 32.3951 28.6031 32.4373 27 32.4373C25.3546 32.4373 23.7937 32.3951 22.275 32.2686C21.3468 30.9186 20.5031 29.5686 19.7437 28.2186C18.9421 26.8264 18.1828 25.392 17.5078 23.9998C18.1828 22.6076 18.9421 21.1732 19.7437 19.7811C20.5031 18.4311 21.389 17.0811 22.3171 15.7311C23.8781 15.6045 25.439 15.5623 27.0421 15.5623C28.6874 15.5623 30.2484 15.6045 31.7671 15.7311C32.6953 17.0811 33.539 18.4311 34.2984 19.7811C35.1 21.1732 35.8593 22.6076 36.5343 23.9998C35.8171 25.392 35.1 26.7842 34.2984 28.2186ZM37.7999 26.8264C38.4328 28.3029 38.939 29.7373 39.4031 31.1717C37.9687 31.5092 36.4499 31.7623 34.8468 31.9732C35.3531 31.1717 35.9015 30.3279 36.3656 29.442C36.8718 28.5561 37.3359 27.6701 37.7999 26.8264ZM27 38.2592C25.9875 37.1623 25.0171 35.9811 24.089 34.7576C25.0593 34.7998 26.0296 34.842 27 34.842C27.9703 34.842 28.9406 34.7998 29.9109 34.7576C28.9828 35.9811 28.0125 37.1623 27 38.2592ZM19.1531 31.9311C17.55 31.7201 16.0312 31.467 14.5968 31.1295C15.0609 29.7373 15.5671 28.2607 16.2 26.7842C16.664 27.6279 17.1281 28.5139 17.6343 29.3576C18.1406 30.2857 18.6468 31.0873 19.1531 31.9311V31.9311ZM16.2 21.1732C15.5671 19.6967 15.0609 18.2623 14.5968 16.8279C16.0312 16.4904 17.55 16.2373 19.1531 16.0264C18.6468 16.8279 18.0984 17.6717 17.6343 18.5576C17.1281 19.4436 16.664 20.3295 16.2 21.1732V21.1732ZM27 9.74043C28.0125 10.8373 28.9828 12.0186 29.9109 13.242C28.9406 13.1998 27.9703 13.1576 27 13.1576C26.0296 13.1576 25.0593 13.1998 24.089 13.242C25.0171 12.0186 25.9875 10.8373 27 9.74043ZM36.3656 18.5998L34.8468 16.0686C36.4499 16.2795 37.9687 16.5326 39.4031 16.8701C38.939 18.2623 38.4328 19.7389 37.7999 21.2154C37.3359 20.3295 36.8718 19.4436 36.3656 18.5998ZM13.3734 11.7654C12.6562 7.33574 13.2468 4.21387 14.9765 3.20137C15.3984 2.94824 15.9046 2.82168 16.4531 2.82168C18.9843 2.82168 22.1484 4.88887 25.3125 8.01074C23.8359 9.61387 22.3593 11.4701 20.9249 13.4951C18.4781 13.7061 16.1578 14.0857 13.964 14.5498C13.7109 13.5795 13.5421 12.6514 13.3734 11.7654V11.7654ZM2.95308 23.9998C2.95308 22.017 5.35776 19.9076 9.57651 18.3467C10.4203 18.0092 11.3484 17.7139 12.2765 17.4607C12.9515 19.5701 13.7953 21.8061 14.8078 24.042C13.7953 26.2779 12.9093 28.4717 12.2765 30.5811C6.45464 28.8936 2.95308 26.3623 2.95308 23.9998ZM14.9765 44.7982C13.2468 43.7857 12.6562 40.6639 13.3734 36.2342C13.5 35.3482 13.7109 34.4201 13.964 33.4498C16.1578 33.9561 18.4781 34.2936 20.9249 34.5045C22.3593 36.5295 23.8359 38.3436 25.3125 39.9889C22.1906 43.0686 19.0265 45.1779 16.4531 45.1779C15.9046 45.1779 15.3984 45.0514 14.9765 44.7982ZM40.6265 36.2342C41.3437 40.6639 40.7531 43.7857 39.0234 44.7982C38.6015 45.0514 38.0953 45.1779 37.5468 45.1779C35.0156 45.1779 31.8515 43.1107 28.6875 39.9889C30.164 38.3857 31.6406 36.5295 33.075 34.5045C35.5218 34.2936 37.8421 33.9139 40.0359 33.4498C40.289 34.4201 40.4578 35.3482 40.6265 36.2342V36.2342ZM44.4234 29.6529C43.5796 29.9904 42.6515 30.2857 41.7234 30.5389C41.0484 28.4295 40.2046 26.1936 39.1921 23.9576C40.2046 21.7217 41.0906 19.5279 41.7234 17.4186C47.5453 19.1061 51.0468 21.6373 51.0468 23.9998C51.0468 25.9826 48.6 28.092 44.4234 29.6529Z" fill="#323330"/>
</svg>
