<svg width="35" height="21" viewBox="0 0 35 21" fill="none" xmlns="http://www.w3.org/2000/svg">
<path d="M17.5011 0.000549316C12.8343 0.000549316 9.91868 2.33297 8.7511 6.99973C10.5006 4.66703 12.5429 3.79231 14.8756 4.37555C16.2075 4.7075 17.1593 5.67328 18.2134 6.74352C19.929 8.4845 21.9147 10.5 26.2511 10.5C30.9176 10.5 33.8335 8.16731 35.0011 3.49946C33.2514 5.83352 31.2093 6.70825 28.8764 6.125C27.5447 5.79278 26.594 4.82727 25.5385 3.75703C23.8241 2.01606 21.8389 0.000549316 17.5011 0.000549316V0.000549316ZM8.7511 10.5C4.08461 10.5 1.16868 12.8327 0.00109863 17.5006C1.75055 15.1665 3.79258 14.2918 6.12555 14.875C7.45747 15.2072 8.4093 16.1727 9.4634 17.243C11.179 18.984 13.1647 20.9995 17.5011 20.9995C22.1676 20.9995 25.0835 18.667 26.2511 14.0003C24.5014 16.333 22.4593 17.2077 20.1264 16.6245C18.7947 16.2925 17.844 15.3267 16.7885 14.2565C15.0741 12.5155 13.0889 10.5 8.7511 10.5Z" fill="#323330"/>
</svg>
