<svg width="35" height="21" viewBox="0 0 35 21" fill="none" xmlns="http://www.w3.org/2000/svg">
<path d="M17.501 0.000549316C12.8342 0.000549316 9.91855 2.33297 8.75098 6.99973C10.5004 4.66703 12.5427 3.79231 14.8754 4.37555C16.2073 4.7075 17.1592 5.67328 18.2133 6.74352C19.9288 8.4845 21.9145 10.5 26.251 10.5C30.9175 10.5 33.8334 8.16731 35.001 3.49946C33.2512 5.83352 31.2092 6.70825 28.8763 6.125C27.5446 5.79278 26.5939 4.82727 25.5384 3.75703C23.8239 2.01606 21.8388 0.000549316 17.501 0.000549316V0.000549316ZM8.75098 10.5C4.08449 10.5 1.16855 12.8327 0.000976562 17.5006C1.75043 15.1665 3.79246 14.2918 6.12543 14.875C7.45734 15.2072 8.40918 16.1727 9.46328 17.243C11.1788 18.984 13.1645 20.9995 17.501 20.9995C22.1675 20.9995 25.0834 18.667 26.251 14.0003C24.5012 16.333 22.4592 17.2077 20.1263 16.6245C18.7946 16.2925 17.8439 15.3267 16.7884 14.2565C15.0739 12.5155 13.0888 10.5 8.75098 10.5Z" fill="#FEFFFE"/>
</svg>
